<mxfile host="app.diagrams.net" modified="2024-06-25T03:27:48.259Z" agent="Mozilla/5.0 (Windows NT 10.0; Win64; x64) AppleWebKit/537.36 (KHTML, like Gecko) Chrome/126.0.0.0 Safari/537.36" etag="jVmW943O113isPuS4xkY" version="24.6.2" type="github">
  <diagram name="Page-1" id="ZhTgzePz68tWejGcZd1n">
    <mxGraphModel dx="3833" dy="-565" grid="1" gridSize="10" guides="1" tooltips="1" connect="1" arrows="1" fold="1" page="1" pageScale="1" pageWidth="827" pageHeight="1169" math="0" shadow="0">
      <root>
        <mxCell id="0" />
        <mxCell id="1" parent="0" />
        <mxCell id="QG8xNEk6O1F_hHiHK5nF-1" style="edgeStyle=orthogonalEdgeStyle;rounded=0;orthogonalLoop=1;jettySize=auto;html=1;exitX=1;exitY=0.5;exitDx=0;exitDy=0;" edge="1" parent="1" source="QG8xNEk6O1F_hHiHK5nF-6" target="QG8xNEk6O1F_hHiHK5nF-8">
          <mxGeometry relative="1" as="geometry" />
        </mxCell>
        <mxCell id="QG8xNEk6O1F_hHiHK5nF-2" style="edgeStyle=orthogonalEdgeStyle;rounded=0;orthogonalLoop=1;jettySize=auto;html=1;exitX=0.25;exitY=1;exitDx=0;exitDy=0;entryX=0.25;entryY=1;entryDx=0;entryDy=0;" edge="1" parent="1" target="QG8xNEk6O1F_hHiHK5nF-6">
          <mxGeometry relative="1" as="geometry">
            <mxPoint x="970" y="2480.1428571428573" as="sourcePoint" />
          </mxGeometry>
        </mxCell>
        <mxCell id="QG8xNEk6O1F_hHiHK5nF-3" style="edgeStyle=orthogonalEdgeStyle;rounded=0;orthogonalLoop=1;jettySize=auto;html=1;exitX=0.5;exitY=1;exitDx=0;exitDy=0;entryX=0.5;entryY=1;entryDx=0;entryDy=0;" edge="1" parent="1" target="QG8xNEk6O1F_hHiHK5nF-6">
          <mxGeometry relative="1" as="geometry">
            <mxPoint x="970" y="2510.153846153846" as="sourcePoint" />
          </mxGeometry>
        </mxCell>
        <mxCell id="QG8xNEk6O1F_hHiHK5nF-4" style="edgeStyle=orthogonalEdgeStyle;rounded=0;orthogonalLoop=1;jettySize=auto;html=1;exitX=0.75;exitY=1;exitDx=0;exitDy=0;entryX=0.75;entryY=1;entryDx=0;entryDy=0;" edge="1" parent="1" target="QG8xNEk6O1F_hHiHK5nF-6">
          <mxGeometry relative="1" as="geometry">
            <mxPoint x="970" y="2540.153846153846" as="sourcePoint" />
          </mxGeometry>
        </mxCell>
        <mxCell id="QG8xNEk6O1F_hHiHK5nF-5" style="edgeStyle=orthogonalEdgeStyle;rounded=0;orthogonalLoop=1;jettySize=auto;html=1;exitX=1;exitY=0.5;exitDx=0;exitDy=0;entryX=0;entryY=0.5;entryDx=0;entryDy=0;" edge="1" parent="1" source="QG8xNEk6O1F_hHiHK5nF-6" target="QG8xNEk6O1F_hHiHK5nF-17">
          <mxGeometry relative="1" as="geometry">
            <Array as="points">
              <mxPoint x="1040" y="2610" />
              <mxPoint x="940" y="2610" />
              <mxPoint x="940" y="2750" />
              <mxPoint x="1057" y="2750" />
            </Array>
          </mxGeometry>
        </mxCell>
        <mxCell id="QG8xNEk6O1F_hHiHK5nF-6" value="cnt_i" style="rounded=0;whiteSpace=wrap;html=1;direction=south;" vertex="1" parent="1">
          <mxGeometry x="1010" y="2450" width="60" height="120" as="geometry" />
        </mxCell>
        <mxCell id="QG8xNEk6O1F_hHiHK5nF-7" style="edgeStyle=orthogonalEdgeStyle;rounded=0;orthogonalLoop=1;jettySize=auto;html=1;exitX=1;exitY=0.5;exitDx=0;exitDy=0;" edge="1" parent="1" source="QG8xNEk6O1F_hHiHK5nF-8">
          <mxGeometry relative="1" as="geometry">
            <mxPoint x="1190" y="2689.666666666667" as="targetPoint" />
          </mxGeometry>
        </mxCell>
        <mxCell id="QG8xNEk6O1F_hHiHK5nF-8" value="comp_i" style="rounded=0;whiteSpace=wrap;html=1;" vertex="1" parent="1">
          <mxGeometry x="980" y="2660" width="120" height="60" as="geometry" />
        </mxCell>
        <mxCell id="QG8xNEk6O1F_hHiHK5nF-9" style="edgeStyle=orthogonalEdgeStyle;rounded=0;orthogonalLoop=1;jettySize=auto;html=1;exitX=0.5;exitY=1;exitDx=0;exitDy=0;entryX=0.75;entryY=0;entryDx=0;entryDy=0;" edge="1" parent="1" source="QG8xNEk6O1F_hHiHK5nF-10" target="QG8xNEk6O1F_hHiHK5nF-8">
          <mxGeometry relative="1" as="geometry" />
        </mxCell>
        <mxCell id="QG8xNEk6O1F_hHiHK5nF-10" value="M*N" style="rounded=0;whiteSpace=wrap;html=1;" vertex="1" parent="1">
          <mxGeometry x="1059.5" y="2610" width="54.5" height="20" as="geometry" />
        </mxCell>
        <mxCell id="QG8xNEk6O1F_hHiHK5nF-11" style="edgeStyle=orthogonalEdgeStyle;rounded=0;orthogonalLoop=1;jettySize=auto;html=1;entryX=0.25;entryY=1;entryDx=0;entryDy=0;" edge="1" parent="1" target="QG8xNEk6O1F_hHiHK5nF-17">
          <mxGeometry relative="1" as="geometry">
            <mxPoint x="977" y="2855" as="sourcePoint" />
          </mxGeometry>
        </mxCell>
        <mxCell id="QG8xNEk6O1F_hHiHK5nF-12" style="edgeStyle=orthogonalEdgeStyle;rounded=0;orthogonalLoop=1;jettySize=auto;html=1;entryX=0.5;entryY=1;entryDx=0;entryDy=0;" edge="1" parent="1" target="QG8xNEk6O1F_hHiHK5nF-17">
          <mxGeometry relative="1" as="geometry">
            <mxPoint x="977" y="2885" as="sourcePoint" />
          </mxGeometry>
        </mxCell>
        <mxCell id="QG8xNEk6O1F_hHiHK5nF-13" style="edgeStyle=orthogonalEdgeStyle;rounded=0;orthogonalLoop=1;jettySize=auto;html=1;entryX=0.75;entryY=1;entryDx=0;entryDy=0;" edge="1" parent="1" target="QG8xNEk6O1F_hHiHK5nF-17">
          <mxGeometry relative="1" as="geometry">
            <mxPoint x="977" y="2915" as="sourcePoint" />
          </mxGeometry>
        </mxCell>
        <mxCell id="QG8xNEk6O1F_hHiHK5nF-14" style="edgeStyle=orthogonalEdgeStyle;rounded=0;orthogonalLoop=1;jettySize=auto;html=1;exitX=1;exitY=0.5;exitDx=0;exitDy=0;entryX=0;entryY=0.25;entryDx=0;entryDy=0;" edge="1" parent="1" source="QG8xNEk6O1F_hHiHK5nF-17" target="QG8xNEk6O1F_hHiHK5nF-27">
          <mxGeometry relative="1" as="geometry" />
        </mxCell>
        <mxCell id="QG8xNEk6O1F_hHiHK5nF-15" style="edgeStyle=orthogonalEdgeStyle;rounded=0;orthogonalLoop=1;jettySize=auto;html=1;exitX=1;exitY=0.5;exitDx=0;exitDy=0;entryX=0;entryY=0.25;entryDx=0;entryDy=0;" edge="1" parent="1" source="QG8xNEk6O1F_hHiHK5nF-17" target="QG8xNEk6O1F_hHiHK5nF-31">
          <mxGeometry relative="1" as="geometry" />
        </mxCell>
        <mxCell id="QG8xNEk6O1F_hHiHK5nF-16" style="edgeStyle=orthogonalEdgeStyle;rounded=0;orthogonalLoop=1;jettySize=auto;html=1;exitX=1;exitY=0.5;exitDx=0;exitDy=0;entryX=0;entryY=0.25;entryDx=0;entryDy=0;" edge="1" parent="1" source="QG8xNEk6O1F_hHiHK5nF-17" target="QG8xNEk6O1F_hHiHK5nF-33">
          <mxGeometry relative="1" as="geometry" />
        </mxCell>
        <mxCell id="QG8xNEk6O1F_hHiHK5nF-17" value="MB" style="rounded=0;whiteSpace=wrap;html=1;direction=south;" vertex="1" parent="1">
          <mxGeometry x="1027" y="2825" width="60" height="120" as="geometry" />
        </mxCell>
        <mxCell id="QG8xNEk6O1F_hHiHK5nF-18" style="edgeStyle=orthogonalEdgeStyle;rounded=0;orthogonalLoop=1;jettySize=auto;html=1;exitX=0.75;exitY=1;exitDx=0;exitDy=0;entryX=0.75;entryY=1;entryDx=0;entryDy=0;" edge="1" parent="1" target="QG8xNEk6O1F_hHiHK5nF-25">
          <mxGeometry relative="1" as="geometry">
            <mxPoint x="827" y="2915.1935483870966" as="sourcePoint" />
          </mxGeometry>
        </mxCell>
        <mxCell id="QG8xNEk6O1F_hHiHK5nF-19" style="edgeStyle=orthogonalEdgeStyle;rounded=0;orthogonalLoop=1;jettySize=auto;html=1;exitX=0.5;exitY=1;exitDx=0;exitDy=0;entryX=0.5;entryY=1;entryDx=0;entryDy=0;" edge="1" parent="1" target="QG8xNEk6O1F_hHiHK5nF-25">
          <mxGeometry relative="1" as="geometry">
            <mxPoint x="827" y="2884.8709677419356" as="sourcePoint" />
          </mxGeometry>
        </mxCell>
        <mxCell id="QG8xNEk6O1F_hHiHK5nF-20" style="edgeStyle=orthogonalEdgeStyle;rounded=0;orthogonalLoop=1;jettySize=auto;html=1;exitX=0.25;exitY=1;exitDx=0;exitDy=0;entryX=0.25;entryY=1;entryDx=0;entryDy=0;" edge="1" parent="1" target="QG8xNEk6O1F_hHiHK5nF-25">
          <mxGeometry relative="1" as="geometry">
            <mxPoint x="827" y="2855.1935483870966" as="sourcePoint" />
          </mxGeometry>
        </mxCell>
        <mxCell id="QG8xNEk6O1F_hHiHK5nF-21" style="edgeStyle=orthogonalEdgeStyle;rounded=0;orthogonalLoop=1;jettySize=auto;html=1;exitX=1;exitY=0.5;exitDx=0;exitDy=0;entryX=0;entryY=0.75;entryDx=0;entryDy=0;" edge="1" parent="1" source="QG8xNEk6O1F_hHiHK5nF-25" target="QG8xNEk6O1F_hHiHK5nF-27">
          <mxGeometry relative="1" as="geometry" />
        </mxCell>
        <mxCell id="QG8xNEk6O1F_hHiHK5nF-22" style="edgeStyle=orthogonalEdgeStyle;rounded=0;orthogonalLoop=1;jettySize=auto;html=1;exitX=1;exitY=0.5;exitDx=0;exitDy=0;entryX=0;entryY=0.75;entryDx=0;entryDy=0;" edge="1" parent="1" source="QG8xNEk6O1F_hHiHK5nF-25" target="QG8xNEk6O1F_hHiHK5nF-31">
          <mxGeometry relative="1" as="geometry" />
        </mxCell>
        <mxCell id="QG8xNEk6O1F_hHiHK5nF-23" style="edgeStyle=orthogonalEdgeStyle;rounded=0;orthogonalLoop=1;jettySize=auto;html=1;exitX=1;exitY=0.5;exitDx=0;exitDy=0;entryX=0;entryY=0.75;entryDx=0;entryDy=0;" edge="1" parent="1" source="QG8xNEk6O1F_hHiHK5nF-25" target="QG8xNEk6O1F_hHiHK5nF-33">
          <mxGeometry relative="1" as="geometry" />
        </mxCell>
        <mxCell id="QG8xNEk6O1F_hHiHK5nF-24" style="edgeStyle=orthogonalEdgeStyle;rounded=0;orthogonalLoop=1;jettySize=auto;html=1;exitX=1;exitY=0.5;exitDx=0;exitDy=0;entryX=0;entryY=0.5;entryDx=0;entryDy=0;" edge="1" parent="1" source="QG8xNEk6O1F_hHiHK5nF-6" target="QG8xNEk6O1F_hHiHK5nF-25">
          <mxGeometry relative="1" as="geometry">
            <Array as="points">
              <mxPoint x="1040" y="2610" />
              <mxPoint x="907" y="2610" />
            </Array>
          </mxGeometry>
        </mxCell>
        <mxCell id="QG8xNEk6O1F_hHiHK5nF-25" value="MA" style="rounded=0;whiteSpace=wrap;html=1;direction=south;" vertex="1" parent="1">
          <mxGeometry x="877" y="2825" width="60" height="120" as="geometry" />
        </mxCell>
        <mxCell id="QG8xNEk6O1F_hHiHK5nF-26" style="edgeStyle=orthogonalEdgeStyle;rounded=0;orthogonalLoop=1;jettySize=auto;html=1;exitX=1;exitY=0.5;exitDx=0;exitDy=0;" edge="1" parent="1" source="QG8xNEk6O1F_hHiHK5nF-27" target="QG8xNEk6O1F_hHiHK5nF-35">
          <mxGeometry relative="1" as="geometry" />
        </mxCell>
        <mxCell id="QG8xNEk6O1F_hHiHK5nF-27" value="Comp A &amp;lt; B" style="rounded=0;whiteSpace=wrap;html=1;" vertex="1" parent="1">
          <mxGeometry x="1127" y="2975" width="120" height="60" as="geometry" />
        </mxCell>
        <mxCell id="QG8xNEk6O1F_hHiHK5nF-28" style="edgeStyle=orthogonalEdgeStyle;rounded=0;orthogonalLoop=1;jettySize=auto;html=1;exitX=0.5;exitY=1;exitDx=0;exitDy=0;entryX=0;entryY=0.75;entryDx=0;entryDy=0;" edge="1" parent="1" source="QG8xNEk6O1F_hHiHK5nF-29" target="QG8xNEk6O1F_hHiHK5nF-6">
          <mxGeometry relative="1" as="geometry" />
        </mxCell>
        <mxCell id="QG8xNEk6O1F_hHiHK5nF-29" value="0" style="rounded=0;whiteSpace=wrap;html=1;" vertex="1" parent="1">
          <mxGeometry x="1010" y="2400" width="30" height="20" as="geometry" />
        </mxCell>
        <mxCell id="QG8xNEk6O1F_hHiHK5nF-30" style="edgeStyle=orthogonalEdgeStyle;rounded=0;orthogonalLoop=1;jettySize=auto;html=1;exitX=1;exitY=0.5;exitDx=0;exitDy=0;entryX=0.25;entryY=1;entryDx=0;entryDy=0;" edge="1" parent="1" target="QG8xNEk6O1F_hHiHK5nF-35">
          <mxGeometry relative="1" as="geometry">
            <mxPoint x="1177" y="3085" as="sourcePoint" />
          </mxGeometry>
        </mxCell>
        <mxCell id="QG8xNEk6O1F_hHiHK5nF-31" value="Sub A -B" style="rounded=0;whiteSpace=wrap;html=1;" vertex="1" parent="1">
          <mxGeometry x="1127" y="3055" width="120" height="60" as="geometry" />
        </mxCell>
        <mxCell id="QG8xNEk6O1F_hHiHK5nF-32" style="edgeStyle=orthogonalEdgeStyle;rounded=0;orthogonalLoop=1;jettySize=auto;html=1;exitX=1;exitY=0.5;exitDx=0;exitDy=0;entryX=0.75;entryY=1;entryDx=0;entryDy=0;" edge="1" parent="1" source="QG8xNEk6O1F_hHiHK5nF-33" target="QG8xNEk6O1F_hHiHK5nF-35">
          <mxGeometry relative="1" as="geometry" />
        </mxCell>
        <mxCell id="QG8xNEk6O1F_hHiHK5nF-33" value="Sub B - A" style="rounded=0;whiteSpace=wrap;html=1;" vertex="1" parent="1">
          <mxGeometry x="1127" y="3135" width="120" height="60" as="geometry" />
        </mxCell>
        <mxCell id="QG8xNEk6O1F_hHiHK5nF-34" style="edgeStyle=orthogonalEdgeStyle;rounded=0;orthogonalLoop=1;jettySize=auto;html=1;exitX=0.5;exitY=0;exitDx=0;exitDy=0;entryX=0;entryY=0.5;entryDx=0;entryDy=0;" edge="1" parent="1" source="QG8xNEk6O1F_hHiHK5nF-35" target="QG8xNEk6O1F_hHiHK5nF-37">
          <mxGeometry relative="1" as="geometry" />
        </mxCell>
        <mxCell id="QG8xNEk6O1F_hHiHK5nF-35" value="Mux" style="shape=trapezoid;perimeter=trapezoidPerimeter;whiteSpace=wrap;html=1;fixedSize=1;direction=south;" vertex="1" parent="1">
          <mxGeometry x="1327" y="3045" width="40" height="160" as="geometry" />
        </mxCell>
        <mxCell id="QG8xNEk6O1F_hHiHK5nF-36" style="edgeStyle=orthogonalEdgeStyle;rounded=0;orthogonalLoop=1;jettySize=auto;html=1;exitX=1;exitY=0.5;exitDx=0;exitDy=0;" edge="1" parent="1" source="QG8xNEk6O1F_hHiHK5nF-37">
          <mxGeometry relative="1" as="geometry">
            <mxPoint x="1640" y="3125" as="targetPoint" />
          </mxGeometry>
        </mxCell>
        <mxCell id="QG8xNEk6O1F_hHiHK5nF-37" value="Adder" style="rounded=0;whiteSpace=wrap;html=1;" vertex="1" parent="1">
          <mxGeometry x="1457" y="3105" width="60" height="40" as="geometry" />
        </mxCell>
        <mxCell id="QG8xNEk6O1F_hHiHK5nF-38" value="CLK" style="text;html=1;align=center;verticalAlign=middle;resizable=0;points=[];autosize=1;strokeColor=none;fillColor=none;" vertex="1" parent="1">
          <mxGeometry x="965" y="2458" width="50" height="30" as="geometry" />
        </mxCell>
        <mxCell id="QG8xNEk6O1F_hHiHK5nF-39" value="RST" style="text;html=1;align=center;verticalAlign=middle;resizable=0;points=[];autosize=1;strokeColor=none;fillColor=none;" vertex="1" parent="1">
          <mxGeometry x="965" y="2488" width="50" height="30" as="geometry" />
        </mxCell>
        <mxCell id="QG8xNEk6O1F_hHiHK5nF-40" value="We" style="text;html=1;align=center;verticalAlign=middle;resizable=0;points=[];autosize=1;strokeColor=none;fillColor=none;" vertex="1" parent="1">
          <mxGeometry x="834" y="2833" width="40" height="30" as="geometry" />
        </mxCell>
        <mxCell id="QG8xNEk6O1F_hHiHK5nF-41" value="Re" style="text;html=1;align=center;verticalAlign=middle;resizable=0;points=[];autosize=1;strokeColor=none;fillColor=none;" vertex="1" parent="1">
          <mxGeometry x="835" y="2863" width="40" height="30" as="geometry" />
        </mxCell>
        <mxCell id="QG8xNEk6O1F_hHiHK5nF-42" value="We" style="text;html=1;align=center;verticalAlign=middle;resizable=0;points=[];autosize=1;strokeColor=none;fillColor=none;" vertex="1" parent="1">
          <mxGeometry x="982" y="2833" width="40" height="30" as="geometry" />
        </mxCell>
        <mxCell id="QG8xNEk6O1F_hHiHK5nF-43" value="Re" style="text;html=1;align=center;verticalAlign=middle;resizable=0;points=[];autosize=1;strokeColor=none;fillColor=none;" vertex="1" parent="1">
          <mxGeometry x="982" y="2863" width="40" height="30" as="geometry" />
        </mxCell>
        <mxCell id="QG8xNEk6O1F_hHiHK5nF-44" value="0" style="text;html=1;align=center;verticalAlign=middle;resizable=0;points=[];autosize=1;strokeColor=none;fillColor=none;" vertex="1" parent="1">
          <mxGeometry x="1272" y="3058" width="30" height="30" as="geometry" />
        </mxCell>
        <mxCell id="QG8xNEk6O1F_hHiHK5nF-45" value="1" style="text;html=1;align=center;verticalAlign=middle;resizable=0;points=[];autosize=1;strokeColor=none;fillColor=none;" vertex="1" parent="1">
          <mxGeometry x="1269" y="3138" width="30" height="30" as="geometry" />
        </mxCell>
        <mxCell id="QG8xNEk6O1F_hHiHK5nF-46" value="B" style="text;html=1;align=center;verticalAlign=middle;resizable=0;points=[];autosize=1;strokeColor=none;fillColor=none;" vertex="1" parent="1">
          <mxGeometry x="1072" y="2968" width="30" height="30" as="geometry" />
        </mxCell>
        <mxCell id="QG8xNEk6O1F_hHiHK5nF-47" value="A" style="text;html=1;align=center;verticalAlign=middle;resizable=0;points=[];autosize=1;strokeColor=none;fillColor=none;" vertex="1" parent="1">
          <mxGeometry x="1072" y="2998" width="30" height="30" as="geometry" />
        </mxCell>
        <mxCell id="QG8xNEk6O1F_hHiHK5nF-48" value="B" style="text;html=1;align=center;verticalAlign=middle;resizable=0;points=[];autosize=1;strokeColor=none;fillColor=none;" vertex="1" parent="1">
          <mxGeometry x="1072" y="3045" width="30" height="30" as="geometry" />
        </mxCell>
        <mxCell id="QG8xNEk6O1F_hHiHK5nF-49" value="A" style="text;html=1;align=center;verticalAlign=middle;resizable=0;points=[];autosize=1;strokeColor=none;fillColor=none;" vertex="1" parent="1">
          <mxGeometry x="1072" y="3077" width="30" height="30" as="geometry" />
        </mxCell>
        <mxCell id="QG8xNEk6O1F_hHiHK5nF-50" value="B" style="text;html=1;align=center;verticalAlign=middle;resizable=0;points=[];autosize=1;strokeColor=none;fillColor=none;" vertex="1" parent="1">
          <mxGeometry x="1072" y="3125" width="30" height="30" as="geometry" />
        </mxCell>
        <mxCell id="QG8xNEk6O1F_hHiHK5nF-51" value="A" style="text;html=1;align=center;verticalAlign=middle;resizable=0;points=[];autosize=1;strokeColor=none;fillColor=none;" vertex="1" parent="1">
          <mxGeometry x="1073" y="3156" width="30" height="30" as="geometry" />
        </mxCell>
        <mxCell id="QG8xNEk6O1F_hHiHK5nF-52" value="Sum" style="text;html=1;align=center;verticalAlign=middle;resizable=0;points=[];autosize=1;strokeColor=none;fillColor=none;" vertex="1" parent="1">
          <mxGeometry x="1547" y="3103" width="50" height="30" as="geometry" />
        </mxCell>
        <mxCell id="QG8xNEk6O1F_hHiHK5nF-53" value="dataA" style="text;html=1;align=center;verticalAlign=middle;resizable=0;points=[];autosize=1;strokeColor=none;fillColor=none;" vertex="1" parent="1">
          <mxGeometry x="829" y="2891" width="50" height="30" as="geometry" />
        </mxCell>
        <mxCell id="QG8xNEk6O1F_hHiHK5nF-54" value="dataB" style="text;html=1;align=center;verticalAlign=middle;resizable=0;points=[];autosize=1;strokeColor=none;fillColor=none;" vertex="1" parent="1">
          <mxGeometry x="977" y="2891" width="50" height="30" as="geometry" />
        </mxCell>
        <mxCell id="QG8xNEk6O1F_hHiHK5nF-55" value="En_i" style="text;html=1;align=center;verticalAlign=middle;resizable=0;points=[];autosize=1;strokeColor=none;fillColor=none;" vertex="1" parent="1">
          <mxGeometry x="965" y="2518" width="50" height="30" as="geometry" />
        </mxCell>
        <mxCell id="QG8xNEk6O1F_hHiHK5nF-56" value="test_i" style="text;html=1;align=center;verticalAlign=middle;resizable=0;points=[];autosize=1;strokeColor=none;fillColor=none;" vertex="1" parent="1">
          <mxGeometry x="1114" y="2667" width="50" height="30" as="geometry" />
        </mxCell>
        <mxCell id="QG8xNEk6O1F_hHiHK5nF-57" value="Addr" style="text;html=1;align=center;verticalAlign=middle;resizable=0;points=[];autosize=1;strokeColor=none;fillColor=none;" vertex="1" parent="1">
          <mxGeometry x="882" y="2833" width="50" height="30" as="geometry" />
        </mxCell>
        <mxCell id="QG8xNEk6O1F_hHiHK5nF-58" value="Addr" style="text;html=1;align=center;verticalAlign=middle;resizable=0;points=[];autosize=1;strokeColor=none;fillColor=none;" vertex="1" parent="1">
          <mxGeometry x="1032" y="2833" width="50" height="30" as="geometry" />
        </mxCell>
        <mxCell id="QG8xNEk6O1F_hHiHK5nF-59" value="Out" style="text;html=1;align=center;verticalAlign=middle;resizable=0;points=[];autosize=1;strokeColor=none;fillColor=none;" vertex="1" parent="1">
          <mxGeometry x="887" y="2921" width="40" height="30" as="geometry" />
        </mxCell>
        <mxCell id="QG8xNEk6O1F_hHiHK5nF-60" value="Out" style="text;html=1;align=center;verticalAlign=middle;resizable=0;points=[];autosize=1;strokeColor=none;fillColor=none;" vertex="1" parent="1">
          <mxGeometry x="1037" y="2920" width="40" height="30" as="geometry" />
        </mxCell>
        <mxCell id="QG8xNEk6O1F_hHiHK5nF-61" style="edgeStyle=orthogonalEdgeStyle;rounded=0;orthogonalLoop=1;jettySize=auto;html=1;exitX=0.5;exitY=1;exitDx=0;exitDy=0;entryX=0.5;entryY=0;entryDx=0;entryDy=0;" edge="1" parent="1" source="QG8xNEk6O1F_hHiHK5nF-62" target="QG8xNEk6O1F_hHiHK5nF-65">
          <mxGeometry relative="1" as="geometry" />
        </mxCell>
        <mxCell id="QG8xNEk6O1F_hHiHK5nF-62" value="Clear all register&lt;div&gt;Done = 0&lt;/div&gt;&lt;div&gt;Ld_i = 1&lt;/div&gt;" style="whiteSpace=wrap;html=1;aspect=fixed;" vertex="1" parent="1">
          <mxGeometry x="1984.89" y="2440" width="140" height="140" as="geometry" />
        </mxCell>
        <mxCell id="QG8xNEk6O1F_hHiHK5nF-63" style="edgeStyle=orthogonalEdgeStyle;rounded=0;orthogonalLoop=1;jettySize=auto;html=1;exitX=0.5;exitY=1;exitDx=0;exitDy=0;entryX=0.5;entryY=0;entryDx=0;entryDy=0;" edge="1" parent="1" source="QG8xNEk6O1F_hHiHK5nF-65" target="QG8xNEk6O1F_hHiHK5nF-68">
          <mxGeometry relative="1" as="geometry" />
        </mxCell>
        <mxCell id="QG8xNEk6O1F_hHiHK5nF-64" style="edgeStyle=orthogonalEdgeStyle;rounded=0;orthogonalLoop=1;jettySize=auto;html=1;exitX=1;exitY=0.5;exitDx=0;exitDy=0;entryX=1;entryY=0.5;entryDx=0;entryDy=0;" edge="1" parent="1" source="QG8xNEk6O1F_hHiHK5nF-65" target="QG8xNEk6O1F_hHiHK5nF-62">
          <mxGeometry relative="1" as="geometry">
            <Array as="points">
              <mxPoint x="2174.89" y="2682" />
              <mxPoint x="2174.89" y="2510" />
            </Array>
          </mxGeometry>
        </mxCell>
        <mxCell id="QG8xNEk6O1F_hHiHK5nF-65" value="Start = 1" style="rhombus;whiteSpace=wrap;html=1;" vertex="1" parent="1">
          <mxGeometry x="1999.89" y="2642" width="110" height="80" as="geometry" />
        </mxCell>
        <mxCell id="QG8xNEk6O1F_hHiHK5nF-66" style="edgeStyle=orthogonalEdgeStyle;rounded=0;orthogonalLoop=1;jettySize=auto;html=1;exitX=0.5;exitY=1;exitDx=0;exitDy=0;entryX=0.5;entryY=0;entryDx=0;entryDy=0;" edge="1" parent="1" source="QG8xNEk6O1F_hHiHK5nF-68" target="QG8xNEk6O1F_hHiHK5nF-70">
          <mxGeometry relative="1" as="geometry">
            <mxPoint x="2054.8899999999994" y="2877" as="targetPoint" />
          </mxGeometry>
        </mxCell>
        <mxCell id="QG8xNEk6O1F_hHiHK5nF-67" style="edgeStyle=orthogonalEdgeStyle;rounded=0;orthogonalLoop=1;jettySize=auto;html=1;exitX=1;exitY=0.5;exitDx=0;exitDy=0;entryX=1;entryY=0.5;entryDx=0;entryDy=0;" edge="1" parent="1" source="QG8xNEk6O1F_hHiHK5nF-68" target="QG8xNEk6O1F_hHiHK5nF-74">
          <mxGeometry relative="1" as="geometry">
            <Array as="points">
              <mxPoint x="2180" y="2812" />
              <mxPoint x="2180" y="3240" />
            </Array>
            <mxPoint x="2109.89" y="2862" as="sourcePoint" />
          </mxGeometry>
        </mxCell>
        <mxCell id="QG8xNEk6O1F_hHiHK5nF-68" value="test_i = 0" style="rhombus;whiteSpace=wrap;html=1;" vertex="1" parent="1">
          <mxGeometry x="1999.89" y="2772" width="110" height="80" as="geometry" />
        </mxCell>
        <mxCell id="QG8xNEk6O1F_hHiHK5nF-69" style="edgeStyle=orthogonalEdgeStyle;rounded=0;orthogonalLoop=1;jettySize=auto;html=1;exitX=0.5;exitY=1;exitDx=0;exitDy=0;entryX=0.5;entryY=0;entryDx=0;entryDy=0;" edge="1" parent="1" source="QG8xNEk6O1F_hHiHK5nF-70" target="QG8xNEk6O1F_hHiHK5nF-76">
          <mxGeometry relative="1" as="geometry" />
        </mxCell>
        <mxCell id="QG8xNEk6O1F_hHiHK5nF-70" value="ReA = 1&lt;div&gt;ReB&amp;nbsp; =1&lt;br&gt;&lt;/div&gt;" style="rounded=0;whiteSpace=wrap;html=1;" vertex="1" parent="1">
          <mxGeometry x="1994.89" y="2893" width="120" height="60" as="geometry" />
        </mxCell>
        <mxCell id="QG8xNEk6O1F_hHiHK5nF-71" style="edgeStyle=orthogonalEdgeStyle;rounded=0;orthogonalLoop=1;jettySize=auto;html=1;exitX=0.5;exitY=1;exitDx=0;exitDy=0;" edge="1" parent="1" source="QG8xNEk6O1F_hHiHK5nF-72">
          <mxGeometry relative="1" as="geometry">
            <mxPoint x="1984.89" y="2518" as="targetPoint" />
            <Array as="points">
              <mxPoint x="2055" y="3440" />
              <mxPoint x="1920" y="3440" />
              <mxPoint x="1920" y="2518" />
            </Array>
          </mxGeometry>
        </mxCell>
        <mxCell id="QG8xNEk6O1F_hHiHK5nF-72" value="Start = 0" style="rhombus;whiteSpace=wrap;html=1;" vertex="1" parent="1">
          <mxGeometry x="1999.89" y="3320" width="110" height="80" as="geometry" />
        </mxCell>
        <mxCell id="QG8xNEk6O1F_hHiHK5nF-73" style="edgeStyle=orthogonalEdgeStyle;rounded=0;orthogonalLoop=1;jettySize=auto;html=1;exitX=0.5;exitY=1;exitDx=0;exitDy=0;entryX=0.5;entryY=0;entryDx=0;entryDy=0;" edge="1" parent="1" source="QG8xNEk6O1F_hHiHK5nF-74" target="QG8xNEk6O1F_hHiHK5nF-72">
          <mxGeometry relative="1" as="geometry" />
        </mxCell>
        <mxCell id="QG8xNEk6O1F_hHiHK5nF-74" value="Done = 1" style="rounded=0;whiteSpace=wrap;html=1;" vertex="1" parent="1">
          <mxGeometry x="1994.89" y="3207" width="120" height="65" as="geometry" />
        </mxCell>
        <mxCell id="QG8xNEk6O1F_hHiHK5nF-75" style="edgeStyle=orthogonalEdgeStyle;rounded=0;orthogonalLoop=1;jettySize=auto;html=1;exitX=0.5;exitY=1;exitDx=0;exitDy=0;entryX=0.5;entryY=0;entryDx=0;entryDy=0;" edge="1" parent="1" source="QG8xNEk6O1F_hHiHK5nF-76" target="QG8xNEk6O1F_hHiHK5nF-79">
          <mxGeometry relative="1" as="geometry">
            <mxPoint x="2055" y="3110" as="targetPoint" />
          </mxGeometry>
        </mxCell>
        <mxCell id="QG8xNEk6O1F_hHiHK5nF-76" value="En_i = 1" style="rounded=0;whiteSpace=wrap;html=1;" vertex="1" parent="1">
          <mxGeometry x="1994.89" y="2991" width="120" height="60" as="geometry" />
        </mxCell>
        <mxCell id="QG8xNEk6O1F_hHiHK5nF-77" style="edgeStyle=orthogonalEdgeStyle;rounded=0;orthogonalLoop=1;jettySize=auto;html=1;exitX=0.5;exitY=1;exitDx=0;exitDy=0;entryX=0.5;entryY=0;entryDx=0;entryDy=0;" edge="1" parent="1" target="QG8xNEk6O1F_hHiHK5nF-79">
          <mxGeometry relative="1" as="geometry">
            <mxPoint x="2054.8900000000003" y="3140" as="sourcePoint" />
          </mxGeometry>
        </mxCell>
        <mxCell id="QG8xNEk6O1F_hHiHK5nF-78" style="edgeStyle=orthogonalEdgeStyle;rounded=0;orthogonalLoop=1;jettySize=auto;html=1;exitX=0;exitY=0.5;exitDx=0;exitDy=0;entryX=0;entryY=0.5;entryDx=0;entryDy=0;" edge="1" parent="1" source="QG8xNEk6O1F_hHiHK5nF-79" target="QG8xNEk6O1F_hHiHK5nF-68">
          <mxGeometry relative="1" as="geometry" />
        </mxCell>
        <mxCell id="QG8xNEk6O1F_hHiHK5nF-79" value="Re_sum = 1" style="rounded=0;whiteSpace=wrap;html=1;" vertex="1" parent="1">
          <mxGeometry x="1994.89" y="3115" width="120" height="60" as="geometry" />
        </mxCell>
        <mxCell id="QG8xNEk6O1F_hHiHK5nF-80" style="edgeStyle=orthogonalEdgeStyle;rounded=0;orthogonalLoop=1;jettySize=auto;html=1;exitX=1.033;exitY=0.734;exitDx=0;exitDy=0;entryX=0.5;entryY=0;entryDx=0;entryDy=0;exitPerimeter=0;" edge="1" parent="1" source="QG8xNEk6O1F_hHiHK5nF-52" target="QG8xNEk6O1F_hHiHK5nF-37">
          <mxGeometry relative="1" as="geometry">
            <Array as="points">
              <mxPoint x="1599" y="3085" />
              <mxPoint x="1487" y="3085" />
            </Array>
          </mxGeometry>
        </mxCell>
        <mxCell id="QG8xNEk6O1F_hHiHK5nF-81" value="" style="rounded=0;html=1;jettySize=auto;orthogonalLoop=1;fontSize=11;endArrow=block;endFill=0;endSize=8;strokeWidth=1;shadow=0;labelBackgroundColor=none;edgeStyle=orthogonalEdgeStyle;" edge="1" parent="1" source="QG8xNEk6O1F_hHiHK5nF-82" target="QG8xNEk6O1F_hHiHK5nF-85">
          <mxGeometry relative="1" as="geometry" />
        </mxCell>
        <mxCell id="QG8xNEk6O1F_hHiHK5nF-82" value="Clear all registers;&lt;div&gt;Done = &#39;0&#39;;&lt;/div&gt;" style="rounded=1;whiteSpace=wrap;html=1;fontSize=12;glass=0;strokeWidth=1;shadow=0;" vertex="1" parent="1">
          <mxGeometry x="280" y="2338" width="120" height="40" as="geometry" />
        </mxCell>
        <mxCell id="QG8xNEk6O1F_hHiHK5nF-83" style="edgeStyle=orthogonalEdgeStyle;rounded=0;orthogonalLoop=1;jettySize=auto;html=1;exitX=0.5;exitY=1;exitDx=0;exitDy=0;entryX=0.5;entryY=0;entryDx=0;entryDy=0;" edge="1" parent="1" source="QG8xNEk6O1F_hHiHK5nF-85" target="QG8xNEk6O1F_hHiHK5nF-87">
          <mxGeometry relative="1" as="geometry" />
        </mxCell>
        <mxCell id="QG8xNEk6O1F_hHiHK5nF-84" style="edgeStyle=orthogonalEdgeStyle;rounded=0;orthogonalLoop=1;jettySize=auto;html=1;exitX=1;exitY=0.5;exitDx=0;exitDy=0;" edge="1" parent="1" source="QG8xNEk6O1F_hHiHK5nF-85">
          <mxGeometry relative="1" as="geometry">
            <mxPoint x="340" y="2398" as="targetPoint" />
            <Array as="points">
              <mxPoint x="441" y="2468" />
            </Array>
          </mxGeometry>
        </mxCell>
        <mxCell id="QG8xNEk6O1F_hHiHK5nF-85" value="Start = &#39;1&#39;" style="rhombus;whiteSpace=wrap;html=1;shadow=0;fontFamily=Helvetica;fontSize=12;align=center;strokeWidth=1;spacing=6;spacingTop=-4;" vertex="1" parent="1">
          <mxGeometry x="270" y="2443" width="140" height="50" as="geometry" />
        </mxCell>
        <mxCell id="QG8xNEk6O1F_hHiHK5nF-86" style="edgeStyle=orthogonalEdgeStyle;rounded=0;orthogonalLoop=1;jettySize=auto;html=1;exitX=0.5;exitY=1;exitDx=0;exitDy=0;entryX=0.5;entryY=0;entryDx=0;entryDy=0;" edge="1" parent="1" source="QG8xNEk6O1F_hHiHK5nF-87" target="QG8xNEk6O1F_hHiHK5nF-92">
          <mxGeometry relative="1" as="geometry" />
        </mxCell>
        <mxCell id="QG8xNEk6O1F_hHiHK5nF-87" value="i = 0" style="rounded=1;whiteSpace=wrap;html=1;" vertex="1" parent="1">
          <mxGeometry x="300" y="2538" width="80" height="40" as="geometry" />
        </mxCell>
        <mxCell id="QG8xNEk6O1F_hHiHK5nF-88" style="edgeStyle=orthogonalEdgeStyle;rounded=0;orthogonalLoop=1;jettySize=auto;html=1;exitX=0.5;exitY=1;exitDx=0;exitDy=0;entryX=0.5;entryY=0;entryDx=0;entryDy=0;" edge="1" parent="1" source="QG8xNEk6O1F_hHiHK5nF-89" target="QG8xNEk6O1F_hHiHK5nF-95">
          <mxGeometry relative="1" as="geometry" />
        </mxCell>
        <mxCell id="QG8xNEk6O1F_hHiHK5nF-89" value="a = A[i*M + j]&lt;div&gt;b = B[i*M + j]&lt;/div&gt;" style="rounded=1;whiteSpace=wrap;html=1;" vertex="1" parent="1">
          <mxGeometry x="280" y="2878" width="120" height="60" as="geometry" />
        </mxCell>
        <mxCell id="QG8xNEk6O1F_hHiHK5nF-90" style="edgeStyle=orthogonalEdgeStyle;rounded=0;orthogonalLoop=1;jettySize=auto;html=1;exitX=0.5;exitY=1;exitDx=0;exitDy=0;entryX=0.5;entryY=0;entryDx=0;entryDy=0;" edge="1" parent="1" source="QG8xNEk6O1F_hHiHK5nF-92" target="QG8xNEk6O1F_hHiHK5nF-108">
          <mxGeometry relative="1" as="geometry" />
        </mxCell>
        <mxCell id="QG8xNEk6O1F_hHiHK5nF-91" style="edgeStyle=orthogonalEdgeStyle;rounded=0;orthogonalLoop=1;jettySize=auto;html=1;exitX=0;exitY=0.5;exitDx=0;exitDy=0;entryX=0;entryY=0.5;entryDx=0;entryDy=0;" edge="1" parent="1" source="QG8xNEk6O1F_hHiHK5nF-92" target="QG8xNEk6O1F_hHiHK5nF-101">
          <mxGeometry relative="1" as="geometry">
            <Array as="points">
              <mxPoint x="160" y="2633" />
              <mxPoint x="160" y="3218" />
            </Array>
          </mxGeometry>
        </mxCell>
        <mxCell id="QG8xNEk6O1F_hHiHK5nF-92" value="i &amp;lt; M" style="rhombus;whiteSpace=wrap;html=1;shadow=0;fontFamily=Helvetica;fontSize=12;align=center;strokeWidth=1;spacing=6;spacingTop=-4;" vertex="1" parent="1">
          <mxGeometry x="270" y="2608" width="140" height="50" as="geometry" />
        </mxCell>
        <mxCell id="QG8xNEk6O1F_hHiHK5nF-93" style="edgeStyle=orthogonalEdgeStyle;rounded=0;orthogonalLoop=1;jettySize=auto;html=1;exitX=1;exitY=0.5;exitDx=0;exitDy=0;entryX=0.5;entryY=0;entryDx=0;entryDy=0;" edge="1" parent="1" source="QG8xNEk6O1F_hHiHK5nF-95" target="QG8xNEk6O1F_hHiHK5nF-99">
          <mxGeometry relative="1" as="geometry" />
        </mxCell>
        <mxCell id="QG8xNEk6O1F_hHiHK5nF-94" style="edgeStyle=orthogonalEdgeStyle;rounded=0;orthogonalLoop=1;jettySize=auto;html=1;exitX=0;exitY=0.5;exitDx=0;exitDy=0;entryX=0.5;entryY=0;entryDx=0;entryDy=0;" edge="1" parent="1" source="QG8xNEk6O1F_hHiHK5nF-95" target="QG8xNEk6O1F_hHiHK5nF-97">
          <mxGeometry relative="1" as="geometry" />
        </mxCell>
        <mxCell id="QG8xNEk6O1F_hHiHK5nF-95" value="a &amp;lt; b" style="rhombus;whiteSpace=wrap;html=1;shadow=0;fontFamily=Helvetica;fontSize=12;align=center;strokeWidth=1;spacing=6;spacingTop=-4;" vertex="1" parent="1">
          <mxGeometry x="270" y="2968" width="140" height="50" as="geometry" />
        </mxCell>
        <mxCell id="QG8xNEk6O1F_hHiHK5nF-96" style="edgeStyle=orthogonalEdgeStyle;rounded=0;orthogonalLoop=1;jettySize=auto;html=1;exitX=0.5;exitY=1;exitDx=0;exitDy=0;entryX=0.25;entryY=0;entryDx=0;entryDy=0;" edge="1" parent="1" source="QG8xNEk6O1F_hHiHK5nF-97">
          <mxGeometry relative="1" as="geometry">
            <mxPoint x="315" y="3118" as="targetPoint" />
          </mxGeometry>
        </mxCell>
        <mxCell id="QG8xNEk6O1F_hHiHK5nF-97" value="sum += b - a" style="rounded=1;whiteSpace=wrap;html=1;" vertex="1" parent="1">
          <mxGeometry x="210" y="3048" width="70" height="30" as="geometry" />
        </mxCell>
        <mxCell id="QG8xNEk6O1F_hHiHK5nF-98" style="edgeStyle=orthogonalEdgeStyle;rounded=0;orthogonalLoop=1;jettySize=auto;html=1;exitX=0.5;exitY=1;exitDx=0;exitDy=0;entryX=0.75;entryY=0;entryDx=0;entryDy=0;" edge="1" parent="1" source="QG8xNEk6O1F_hHiHK5nF-99">
          <mxGeometry relative="1" as="geometry">
            <mxPoint x="365" y="3118" as="targetPoint" />
          </mxGeometry>
        </mxCell>
        <mxCell id="QG8xNEk6O1F_hHiHK5nF-99" value="sum += a - b" style="rounded=1;whiteSpace=wrap;html=1;" vertex="1" parent="1">
          <mxGeometry x="400" y="3048" width="70" height="30" as="geometry" />
        </mxCell>
        <mxCell id="QG8xNEk6O1F_hHiHK5nF-100" style="edgeStyle=orthogonalEdgeStyle;rounded=0;orthogonalLoop=1;jettySize=auto;html=1;exitX=0.5;exitY=1;exitDx=0;exitDy=0;entryX=0.5;entryY=0;entryDx=0;entryDy=0;" edge="1" parent="1" source="QG8xNEk6O1F_hHiHK5nF-101" target="QG8xNEk6O1F_hHiHK5nF-103">
          <mxGeometry relative="1" as="geometry" />
        </mxCell>
        <mxCell id="QG8xNEk6O1F_hHiHK5nF-101" value="out = sum" style="rounded=1;whiteSpace=wrap;html=1;" vertex="1" parent="1">
          <mxGeometry x="290" y="3198" width="100" height="40" as="geometry" />
        </mxCell>
        <mxCell id="QG8xNEk6O1F_hHiHK5nF-102" style="edgeStyle=orthogonalEdgeStyle;rounded=0;orthogonalLoop=1;jettySize=auto;html=1;exitX=0.5;exitY=1;exitDx=0;exitDy=0;entryX=0.5;entryY=0;entryDx=0;entryDy=0;" edge="1" parent="1" source="QG8xNEk6O1F_hHiHK5nF-103" target="QG8xNEk6O1F_hHiHK5nF-106">
          <mxGeometry relative="1" as="geometry" />
        </mxCell>
        <mxCell id="QG8xNEk6O1F_hHiHK5nF-103" value="Done = &#39;1&#39;" style="rounded=1;whiteSpace=wrap;html=1;" vertex="1" parent="1">
          <mxGeometry x="290" y="3268" width="100" height="40" as="geometry" />
        </mxCell>
        <mxCell id="QG8xNEk6O1F_hHiHK5nF-104" style="edgeStyle=orthogonalEdgeStyle;rounded=0;orthogonalLoop=1;jettySize=auto;html=1;exitX=0.5;exitY=1;exitDx=0;exitDy=0;entryX=0.5;entryY=0;entryDx=0;entryDy=0;" edge="1" parent="1" source="QG8xNEk6O1F_hHiHK5nF-106">
          <mxGeometry relative="1" as="geometry">
            <mxPoint x="340" y="3438" as="targetPoint" />
          </mxGeometry>
        </mxCell>
        <mxCell id="QG8xNEk6O1F_hHiHK5nF-105" style="edgeStyle=orthogonalEdgeStyle;rounded=0;orthogonalLoop=1;jettySize=auto;html=1;exitX=1;exitY=0.5;exitDx=0;exitDy=0;" edge="1" parent="1" source="QG8xNEk6O1F_hHiHK5nF-106">
          <mxGeometry relative="1" as="geometry">
            <mxPoint x="340" y="3328" as="targetPoint" />
          </mxGeometry>
        </mxCell>
        <mxCell id="QG8xNEk6O1F_hHiHK5nF-106" value="Start = &#39;0&#39;" style="rhombus;whiteSpace=wrap;html=1;shadow=0;fontFamily=Helvetica;fontSize=12;align=center;strokeWidth=1;spacing=6;spacingTop=-4;" vertex="1" parent="1">
          <mxGeometry x="270" y="3348" width="140" height="50" as="geometry" />
        </mxCell>
        <mxCell id="QG8xNEk6O1F_hHiHK5nF-107" style="edgeStyle=orthogonalEdgeStyle;rounded=0;orthogonalLoop=1;jettySize=auto;html=1;exitX=0.5;exitY=1;exitDx=0;exitDy=0;entryX=0.5;entryY=0;entryDx=0;entryDy=0;" edge="1" parent="1" source="QG8xNEk6O1F_hHiHK5nF-108" target="QG8xNEk6O1F_hHiHK5nF-111">
          <mxGeometry relative="1" as="geometry" />
        </mxCell>
        <mxCell id="QG8xNEk6O1F_hHiHK5nF-108" value="j = 0" style="rounded=1;whiteSpace=wrap;html=1;" vertex="1" parent="1">
          <mxGeometry x="300" y="2678" width="80" height="40" as="geometry" />
        </mxCell>
        <mxCell id="QG8xNEk6O1F_hHiHK5nF-109" style="edgeStyle=orthogonalEdgeStyle;rounded=0;orthogonalLoop=1;jettySize=auto;html=1;exitX=0.5;exitY=1;exitDx=0;exitDy=0;" edge="1" parent="1" source="QG8xNEk6O1F_hHiHK5nF-111" target="QG8xNEk6O1F_hHiHK5nF-89">
          <mxGeometry relative="1" as="geometry">
            <mxPoint x="350" y="2698" as="sourcePoint" />
          </mxGeometry>
        </mxCell>
        <mxCell id="QG8xNEk6O1F_hHiHK5nF-110" style="edgeStyle=orthogonalEdgeStyle;rounded=0;orthogonalLoop=1;jettySize=auto;html=1;exitX=1;exitY=0.5;exitDx=0;exitDy=0;entryX=0.5;entryY=1;entryDx=0;entryDy=0;" edge="1" parent="1" source="QG8xNEk6O1F_hHiHK5nF-111" target="QG8xNEk6O1F_hHiHK5nF-115">
          <mxGeometry relative="1" as="geometry" />
        </mxCell>
        <mxCell id="QG8xNEk6O1F_hHiHK5nF-111" value="j &amp;lt; N" style="rhombus;whiteSpace=wrap;html=1;shadow=0;fontFamily=Helvetica;fontSize=12;align=center;strokeWidth=1;spacing=6;spacingTop=-4;" vertex="1" parent="1">
          <mxGeometry x="270" y="2743" width="140" height="50" as="geometry" />
        </mxCell>
        <mxCell id="QG8xNEk6O1F_hHiHK5nF-112" style="edgeStyle=orthogonalEdgeStyle;rounded=0;orthogonalLoop=1;jettySize=auto;html=1;exitX=0;exitY=0.5;exitDx=0;exitDy=0;entryX=0;entryY=0.5;entryDx=0;entryDy=0;" edge="1" parent="1" source="QG8xNEk6O1F_hHiHK5nF-113" target="QG8xNEk6O1F_hHiHK5nF-111">
          <mxGeometry relative="1" as="geometry">
            <Array as="points">
              <mxPoint x="190" y="3143" />
              <mxPoint x="190" y="2768" />
            </Array>
          </mxGeometry>
        </mxCell>
        <mxCell id="QG8xNEk6O1F_hHiHK5nF-113" value="j++" style="rounded=1;whiteSpace=wrap;html=1;" vertex="1" parent="1">
          <mxGeometry x="300" y="3123" width="80" height="40" as="geometry" />
        </mxCell>
        <mxCell id="QG8xNEk6O1F_hHiHK5nF-114" style="edgeStyle=orthogonalEdgeStyle;rounded=0;orthogonalLoop=1;jettySize=auto;html=1;exitX=0.5;exitY=0;exitDx=0;exitDy=0;entryX=1;entryY=0.5;entryDx=0;entryDy=0;" edge="1" parent="1" source="QG8xNEk6O1F_hHiHK5nF-115" target="QG8xNEk6O1F_hHiHK5nF-92">
          <mxGeometry relative="1" as="geometry" />
        </mxCell>
        <mxCell id="QG8xNEk6O1F_hHiHK5nF-115" value="i++" style="rounded=1;whiteSpace=wrap;html=1;" vertex="1" parent="1">
          <mxGeometry x="420" y="2678" width="80" height="40" as="geometry" />
        </mxCell>
        <mxCell id="QG8xNEk6O1F_hHiHK5nF-116" value="&lt;b&gt;&lt;font style=&quot;font-size: 36px;&quot;&gt;FSMD&lt;/font&gt;&lt;/b&gt;" style="text;html=1;align=center;verticalAlign=middle;resizable=0;points=[];autosize=1;strokeColor=none;fillColor=none;" vertex="1" parent="1">
          <mxGeometry x="275" y="3447" width="130" height="60" as="geometry" />
        </mxCell>
        <mxCell id="QG8xNEk6O1F_hHiHK5nF-117" value="&lt;b&gt;&lt;font style=&quot;font-size: 36px;&quot;&gt;Datapath&lt;/font&gt;&lt;/b&gt;" style="text;html=1;align=center;verticalAlign=middle;resizable=0;points=[];autosize=1;strokeColor=none;fillColor=none;" vertex="1" parent="1">
          <mxGeometry x="1147" y="3447" width="180" height="60" as="geometry" />
        </mxCell>
        <mxCell id="QG8xNEk6O1F_hHiHK5nF-118" value="&lt;b&gt;&lt;font style=&quot;font-size: 36px;&quot;&gt;Controller&lt;/font&gt;&lt;/b&gt;" style="text;html=1;align=center;verticalAlign=middle;resizable=0;points=[];autosize=1;strokeColor=none;fillColor=none;" vertex="1" parent="1">
          <mxGeometry x="1967" y="3440" width="200" height="60" as="geometry" />
        </mxCell>
      </root>
    </mxGraphModel>
  </diagram>
</mxfile>
